<svg xmlns="http://www.w3.org/2000/svg" id="a" viewBox="0 0 327.67 64.26"><defs><style>.b{fill:#212936;}.c{fill:#6466e9;}</style></defs><g><path class="b" d="M7.28,43.89v5.11H0V0H7.28V19.32c1.31-1.87,3.02-3.34,5.15-4.41,2.12-1.07,4.42-1.61,6.89-1.61,4.71,0,8.62,1.7,11.73,5.11,3.1,3.41,4.66,7.82,4.66,13.23s-1.59,9.82-4.76,13.23c-3.17,3.41-7.16,5.11-11.97,5.11-2.57,0-4.88-.56-6.93-1.68-2.05-1.12-3.64-2.59-4.76-4.41Zm21-12.25c0-3.45-1-6.25-3.01-8.4-2.05-2.19-4.64-3.29-7.77-3.29s-5.65,1.11-7.7,3.33c-2.05,2.22-3.08,5-3.08,8.37s1.01,6.15,3.04,8.36c2.03,2.22,4.61,3.33,7.73,3.33s5.72-1.1,7.77-3.29c2.01-2.15,3.01-4.95,3.01-8.4Z"></path><path class="b" d="M42.7,36.4V14.28h7.28v20.72c0,2.71,.66,4.77,1.99,6.2,1.33,1.42,3.23,2.13,5.71,2.13,2.61,0,4.78-1.01,6.51-3.04,1.73-2.03,2.59-4.63,2.59-7.8V14.28h7.21V49h-7.21v-5.74c-1.12,2.1-2.68,3.75-4.69,4.94-2.01,1.19-4.22,1.79-6.65,1.79-3.87,0-6.97-1.18-9.28-3.54-2.31-2.36-3.46-5.71-3.46-10.04Z"></path><path class="b" d="M81.27,31.64c0-5.27,1.67-9.65,5.01-13.12,3.34-3.48,7.29-5.22,11.86-5.22,2.57,0,4.85,.54,6.86,1.61,2.01,1.07,3.57,2.54,4.69,4.41V0h7.28V49h-7.28v-5.53c-1.03,1.96-2.55,3.53-4.58,4.72-2.03,1.19-4.33,1.79-6.9,1.79-4.85,0-8.89-1.7-12.11-5.11-3.22-3.41-4.83-7.82-4.83-13.23Zm25.9,8.36c2.05-2.22,3.08-5,3.08-8.36s-1.03-6.15-3.08-8.37c-2.05-2.22-4.62-3.33-7.7-3.33s-5.72,1.1-7.77,3.29c-2.01,2.15-3.01,4.95-3.01,8.4s1,6.25,3.01,8.4c2.05,2.19,4.64,3.29,7.77,3.29s5.65-1.11,7.7-3.33Z"></path><path class="b" d="M125.09,53.13c0-1.35,.33-2.64,.98-3.85l6.86,2.1c-.33,.79-.49,1.61-.49,2.45,0,1.4,.78,2.52,2.35,3.36,1.56,.84,3.67,1.26,6.33,1.26,6.44,0,9.66-3.69,9.66-11.06v-4.76c-2.33,3.87-5.93,5.81-10.78,5.81s-8.59-1.65-11.76-4.94c-3.17-3.29-4.76-7.5-4.76-12.63s1.62-9.34,4.87-12.63c3.24-3.29,7.15-4.94,11.73-4.94,4.81,0,8.38,1.8,10.71,5.39v-4.41h7.21V46.69c0,5.6-1.48,9.93-4.45,12.98-2.96,3.06-7.1,4.58-12.42,4.58-4.99,0-8.91-1-11.76-3.01-2.85-2.01-4.27-4.71-4.27-8.12Zm23.24-14.07c1.96-2.05,2.94-4.78,2.94-8.19s-.98-6.14-2.94-8.19-4.46-3.08-7.49-3.08-5.5,1.03-7.39,3.08-2.83,4.78-2.83,8.19,.94,6.14,2.83,8.19,4.35,3.08,7.39,3.08,5.53-1.03,7.49-3.08Z"></path><path class="b" d="M169.89,44.8c-3.41-3.45-5.11-7.84-5.11-13.16s1.73-9.71,5.18-13.16,7.7-5.18,12.74-5.18,9.04,1.62,12.15,4.87c3.1,3.24,4.66,7.41,4.66,12.5v2.52h-27.72c.23,3.13,1.34,5.67,3.33,7.63,1.98,1.96,4.44,2.94,7.38,2.94,4.71,0,8.26-2.33,10.64-7l5.32,3.08c-3.36,6.77-8.73,10.15-16.1,10.15-4.9,0-9.05-1.73-12.46-5.18Zm2.03-17.29h20.65c-.28-2.61-1.34-4.69-3.19-6.23-1.84-1.54-4.14-2.31-6.9-2.31s-4.88,.79-6.79,2.38c-1.91,1.59-3.17,3.64-3.78,6.16Z"></path><path class="b" d="M208.88,39.48V20.09h-5.6v-5.81h5.6V4.9h7.21V14.28h7.91v5.81h-7.91v18.34c0,3.45,1.54,5.18,4.62,5.18,.98,0,1.91-.14,2.8-.42l.7,5.95c-1.63,.56-3.36,.84-5.18,.84-3.17,0-5.66-.86-7.45-2.59-1.8-1.73-2.7-4.36-2.7-7.91Z"></path><path class="b" d="M231.07,49V0h7.28V49h-7.28Z"></path><path class="b" d="M299.25,43.89v5.11h-7.28V0h7.28V19.32c1.31-1.87,3.02-3.34,5.15-4.41,2.12-1.07,4.42-1.61,6.89-1.61,4.71,0,8.62,1.7,11.73,5.11,3.1,3.41,4.66,7.82,4.66,13.23s-1.59,9.82-4.76,13.23c-3.17,3.41-7.16,5.11-11.97,5.11-2.57,0-4.88-.56-6.93-1.68-2.05-1.12-3.64-2.59-4.76-4.41Zm21-12.25c0-3.45-1-6.25-3.01-8.4-2.05-2.19-4.64-3.29-7.77-3.29s-5.65,1.11-7.7,3.33c-2.05,2.22-3.08,5-3.08,8.37s1.01,6.15,3.04,8.36c2.03,2.22,4.61,3.33,7.73,3.33s5.72-1.1,7.77-3.29c2.01-2.15,3.01-4.95,3.01-8.4Z"></path></g><g><g><polygon class="b" points="276.58 27.77 276.58 20.15 278.96 20.15 278.96 14.28 276.58 14.28 269.18 14.28 269.18 19.21 269.18 27.77 277.17 48.7 285.04 48.7 276.58 27.77 276.58 27.77"></polygon><polygon class="b" points="252.75 14.28 252.75 20.15 255.13 20.15 255.13 27.77 246.67 48.7 254.55 48.7 257.99 39.7 260.2 33.9 262.54 27.77 262.54 19.21 262.54 14.28 255.13 14.28 252.75 14.28"></polygon></g><circle class="c" cx="265.81" cy="38.11" r="4.2"></circle></g></svg>