<svg xmlns="http://www.w3.org/2000/svg" width="112.023" height="37.396" viewBox="0 0 112.023 37.396"><g id="Group_44857" data-name="Group 44857" transform="translate(2853 3965.035)"><path id="Path_73029" data-name="Path 73029" d="M28.85,17.16a11.33,11.33,0,0,1,3-7.91,9.88,9.88,0,0,1,7.56-3.14A10.14,10.14,0,0,1,47,9.25a11.29,11.29,0,0,1,3,7.91,11.39,11.39,0,0,1-3,8.05,10,10,0,0,1-7.56,3.27,9.79,9.79,0,0,1-7.56-3.27,11.43,11.43,0,0,1-3.03-8.05Zm1.46,0A10.48,10.48,0,0,0,33,24.39a8.58,8.58,0,0,0,6.63,2.87,8.61,8.61,0,0,0,6.63-2.87,10.52,10.52,0,0,0,2.65-7.23,9.86,9.86,0,0,0-2.65-7A8.6,8.6,0,0,0,39.6,7.34,8.57,8.57,0,0,0,33,10.2a9.3,9.3,0,0,0-2.69,6.96Z" transform="translate(-2852.977 -3963.64)" fill="#00bac3"></path><path id="Path_73030" data-name="Path 73030" d="M39.6,28.76a9.71,9.71,0,0,1-7.69-3.41,11.49,11.49,0,0,1-3.19-8.19,11.15,11.15,0,0,1,3.19-8A10.27,10.27,0,0,1,39.6,5.84a10.07,10.07,0,0,1,7.69,3.27,11.18,11.18,0,0,1,3.18,8.05,11.29,11.29,0,0,1-3.18,8.19,9.73,9.73,0,0,1-7.69,3.41Zm0-22.51a10.09,10.09,0,0,0-7.43,3.13,10.76,10.76,0,0,0-3.05,7.78,11.63,11.63,0,0,0,3.05,8.05,10.06,10.06,0,0,0,14.85,0,11.39,11.39,0,0,0,3-8,11,11,0,0,0-3-7.78A10.08,10.08,0,0,0,39.6,6.25Zm0,21.28a8.57,8.57,0,0,1-6.77-3,10.07,10.07,0,0,1-2.65-7.37,10.18,10.18,0,0,1,2.65-7.09,9.41,9.41,0,0,1,13.53,0A9.59,9.59,0,0,1,49,17.16a11.14,11.14,0,0,1-2.65,7.37,9.21,9.21,0,0,1-6.75,3Zm0-20.06a8.67,8.67,0,0,0-6.5,2.73A9.5,9.5,0,0,0,30.45,17a10.14,10.14,0,0,0,2.65,7.1,8.81,8.81,0,0,0,13,0A10.15,10.15,0,0,0,48.75,17a9.51,9.51,0,0,0-2.66-6.82A8.87,8.87,0,0,0,39.6,7.47Z" transform="translate(-2852.977 -3963.64)" fill="#00bac3"></path><path id="Path_73031" data-name="Path 73031" d="M54.05,35.85V14.57h1.33v1.64l-.14,1.09A4.7,4.7,0,0,1,57.5,15a7.12,7.12,0,0,1,3.5-.84,6.09,6.09,0,0,1,4.9,2.05,7.77,7.77,0,0,1,1.86,5.32,7.31,7.31,0,0,1-2,5.32,6.62,6.62,0,0,1-5,2,7.07,7.07,0,0,1-3.31-.81,6.29,6.29,0,0,1-2.26-2.32A3.13,3.13,0,0,1,55.24,27v8.87Zm1.33-14.32a7.23,7.23,0,0,0,1.45,4.36,4.65,4.65,0,0,0,4,1.78,5.33,5.33,0,0,0,4-1.64,6.18,6.18,0,0,0,1.59-4.5A6.78,6.78,0,0,0,64.92,17a5.3,5.3,0,0,0-4-1.63,5.74,5.74,0,0,0-4,1.5,6.31,6.31,0,0,0-1.54,4.66Z" transform="translate(-2852.977 -3963.64)" fill="#00bac3"></path><path id="Path_73032" data-name="Path 73032" d="M55.38,36H54.05c-.13,0-.13-.14-.13-.14V14.57a.13.13,0,0,1,.13-.14h1.33c.13,0,.13.14.13.14v2.18a5.14,5.14,0,0,1,2-1.77,7.64,7.64,0,0,1,3.58-.82,6.4,6.4,0,0,1,5,2.05A8.18,8.18,0,0,1,68,21.66a7.65,7.65,0,0,1-2,5.46,6.92,6.92,0,0,1-5.18,2.05,6.71,6.71,0,0,1-3.31-.82,6.19,6.19,0,0,1-2-1.78V36Zm-1.2-.28h.93V27A3.91,3.91,0,0,0,55,25.76v-.14h.13a.13.13,0,0,1,.13.14,6,6,0,0,0,2.13,2.32,6.16,6.16,0,0,0,3.18.81A6.89,6.89,0,0,0,65.45,27a7.43,7.43,0,0,0,1.86-5.18,7.79,7.79,0,0,0-1.72-5.18,5.93,5.93,0,0,0-4.78-1.91,6.71,6.71,0,0,0-3.31.81,4.72,4.72,0,0,0-2.12,2.19l-.14.13h-.13v-.13l.13-1.09V15.11H54.18Zm6.63-7.77A5.17,5.17,0,0,1,56.7,26a6.56,6.56,0,0,1-1.46-4.5,6.4,6.4,0,0,1,1.6-4.78A5.61,5.61,0,0,1,61,15.11a5.24,5.24,0,0,1,4.11,1.78,6.77,6.77,0,0,1,1.59,4.64,6.55,6.55,0,0,1-1.59,4.64,6,6,0,0,1-4.3,1.77ZM61,15.52A5.46,5.46,0,0,0,57.1,17a6,6,0,0,0-1.59,4.51A6.8,6.8,0,0,0,57,25.76a4.56,4.56,0,0,0,3.84,1.77,5,5,0,0,0,3.85-1.64,6.06,6.06,0,0,0,1.59-4.36,6.61,6.61,0,0,0-1.46-4.37A5.25,5.25,0,0,0,61,15.52Z" transform="translate(-2852.977 -3963.64)" fill="#00bac3"></path><g id="Group_44856" data-name="Group 44856" transform="translate(-2852.977 -3963.67)" opacity="0.5"><path id="Path_73033" data-name="Path 73033" d="M78.05,13.75c-.26,0-.53-.14-.92-.14a4.37,4.37,0,0,0-3.06,1.23,14.591,14.591,0,0,0-1.32,1.64V13.89a.29.29,0,0,0-.27-.28H71.42a.29.29,0,0,0-.26.28V28.48a.29.29,0,0,0,.26.28h1.2a.29.29,0,0,0,.26-.28V22.21a12.521,12.521,0,0,1,.4-3.141,6.11,6.11,0,0,1,1.46-2.589,3.57,3.57,0,0,1,2.52-1.09h.79c.14,0,.14-.14.14-.28V13.89C78.32,13.89,78.19,13.75,78.05,13.75Z" transform="translate(0 0.03)" fill="#031029"></path><path id="Path_73034" data-name="Path 73034" d="M85.88,13.89a6.89,6.89,0,0,0-5.17,2.18,7.09,7.09,0,0,0-2.13,5.32,7.63,7.63,0,0,0,2.13,5.46,7.22,7.22,0,0,0,10.34,0,7.42,7.42,0,0,0,2.12-5.46,7.3,7.3,0,0,0-2.12-5.32,6.9,6.9,0,0,0-5.17-2.18Zm5.57,7.36a6,6,0,0,1-1.59,4.23,5.65,5.65,0,0,1-8,0,6,6,0,0,1-1.59-4.23,5.593,5.593,0,1,1,11.18,0Z" transform="translate(0 0.03)" fill="#031029"></path><path id="Path_73035" data-name="Path 73035" d="M107.36,14H106c-.13,0-.26,0-.26.14L101.1,25.46a1.93,1.93,0,0,0-.27.82l-.26-.82L96.09,14.3c0-.14-.14-.14-.27-.14H94.5c-.14,0-.14,0-.27.14v.27l5.84,14.19c0,.13.13.13.26.13h1.19c.14,0,.27,0,.27-.13l5.83-14.19V14.3a.29.29,0,0,0-.26-.3Z" transform="translate(0 0.03)" fill="#031029"></path><path id="Path_73036" data-name="Path 73036" d="M111.6,14.16h-1.06a.29.29,0,0,0-.26.27V28.48a.29.29,0,0,0,.26.28h1.06a.3.3,0,0,0,.27-.28v-14C111.87,14.3,111.87,14.16,111.6,14.16Z" transform="translate(0 0.03)" fill="#031029"></path><path id="Path_73037" data-name="Path 73037" d="M111.73,8.57h-1.19a.28.28,0,0,0-.26.27v2.05a.29.29,0,0,0,.26.27h1.19a.29.29,0,0,0,.27-.27V8.84A.28.28,0,0,0,111.73,8.57Z" transform="translate(0 0.03)" fill="#031029"></path></g><path id="Path_73038" data-name="Path 73038" d="M23.9,9.21V9A9,9,0,0,0,15,0,8.91,8.91,0,0,0,6.26,9a9.48,9.48,0,0,0,.46,2.79C5.18,13.21-.43,19.16,0,32.28v.65L.66,33c.18,0,.9.1,2,.1a34.21,34.21,0,0,0,4.7-.38,3.37,3.37,0,0,1-.45,1.77h-6V36H20.19V34.51h-7.6a6.68,6.68,0,0,0,1.18-3.44,18,18,0,0,0,5.88-3.72C22,25,23.44,21.3,23.9,16.19a38,38,0,0,0,0-6.98ZM10.6,34.6H8.53a5.79,5.79,0,0,0,.27-2c1.17-.19,2.35-.56,3.43-.84A5.87,5.87,0,0,1,10.6,34.6ZM15,1.49a7.55,7.55,0,0,1,5.24,2.23A4.88,4.88,0,0,0,15,5.3a4.6,4.6,0,0,0-3.71-1.86A4.91,4.91,0,0,0,10,3.63a7,7,0,0,1,5-2.14ZM10.15,5a3.34,3.34,0,0,1,4.16,1.86l.18.47a.62.62,0,0,0,.55.37.56.56,0,0,0,.54-.37l.18-.47A3.34,3.34,0,0,1,19.92,5c2.35.84,2.62,3.54,2.62,4.65a7.54,7.54,0,0,1-7.32,7A7.45,7.45,0,0,1,7.89,9.77C7.71,8,8.16,5.77,10.15,5ZM9.34,15.91C6.45,18.7,3.28,25,1.47,28.93c.45-9.3,4.43-14.14,5.88-15.63a9.15,9.15,0,0,0,1.99,2.61Zm1.08.83a8.51,8.51,0,0,0,4,1.31C13.5,20.56,10,28.65,2,31.26,3.28,28.19,7.17,19.72,10.42,16.74Zm5.52,1.31a8.64,8.64,0,0,0,6.69-4.38c-.09,4-.81,9.59-4,12.66-4,3.81-9.67,4.93-13.74,5.2,7.25-3.62,10.33-11.34,11.05-13.48Z" transform="translate(-2852.977 -3963.64)" fill="#00bac3"></path><path id="Path_73039" data-name="Path 73039" d="M10.61,9.67a2.4,2.4,0,0,0,2.08.38L13,10V9.67a2.77,2.77,0,0,0-.73-2.14A3.29,3.29,0,0,0,9.88,6.7H9.52v.37C9.61,8.37,9.88,9.21,10.61,9.67Z" transform="translate(-2852.977 -3963.64)" fill="#00bac3"></path><path id="Path_73040" data-name="Path 73040" d="M17.3,10.14a2.2,2.2,0,0,0,.63.09,2.26,2.26,0,0,0,1.45-.46,3.43,3.43,0,0,0,1.08-2.51V6.88H20.1a3.22,3.22,0,0,0-2.35.84A2.81,2.81,0,0,0,17,9.86v.28Z" transform="translate(-2852.977 -3963.64)" fill="#00bac3"></path><path id="Path_73041" data-name="Path 73041" d="M80.85,11.236h38.657V0H86.2c-1.241,0-2.271,1.128-2.817,2.924Z" transform="translate(-2862.85 -3962.262)" fill="#f39237"></path><text id="Beta" transform="translate(-2774 -3953.035)" fill="#fff" font-size="12" font-family="SourceSansPro-Regular, Source Sans Pro"><tspan x="0" y="0">Beta</tspan></text></g></svg>