<svg xmlns="http://www.w3.org/2000/svg" id="Layer_1" data-name="Layer 1" viewBox="0 0 646.25 136.01"><defs><style>.cls-1{fill:#26727b;}.cls-2{fill:#018a61;}</style></defs><path class="cls-1" d="M108.71,42.32V93.64H27.3V42.32h81.41m.79-7h-83a6.21,6.21,0,0,0-6.21,6.21v52.9a6.21,6.21,0,0,0,6.21,6.21h83a6.21,6.21,0,0,0,6.21-6.21V41.53a6.21,6.21,0,0,0-6.21-6.21Z"></path><path class="cls-2" d="M171,90.37V45.29h22.19A16.75,16.75,0,0,1,202,47.43a13.28,13.28,0,0,1,5.22,5.77A19.05,19.05,0,0,1,209,61.39a16.7,16.7,0,0,1-2,8.19,13.87,13.87,0,0,1-5.56,5.57,17.47,17.47,0,0,1-8.58,2H182.22V90.37Zm11.27-21.91h8.12a6.89,6.89,0,0,0,5.36-2,7.38,7.38,0,0,0,1.78-5.18,8.12,8.12,0,0,0-1.64-5.42C194.74,54.61,193,54,190.69,54h-8.47Z"></path><path class="cls-2" d="M214.77,90.37V45.29H226V63.14h17.64V45.29H255V90.37H243.68V72.52H226V90.37Z"></path><path class="cls-2" d="M262.09,90.37l17.22-45.08h12.18l17.22,45.08H297l-4.06-10.22H277.84l-4,10.22Zm17.29-18.55h12l-6-15.68Z"></path><path class="cls-2" d="M315.85,90.37V45.29h22.54q8,0,11.76,4.2t3.78,11.27a13.72,13.72,0,0,1-8.61,13.09,7.08,7.08,0,0,1,1.58,1.72,19.39,19.39,0,0,1,1.29,2.62l5.32,12.18H341.75l-5-11.48a4.73,4.73,0,0,0-1.61-2.13,4.91,4.91,0,0,0-2.8-.67h-5.18V90.37Zm11.27-23h8.33a7.54,7.54,0,0,0,5.15-1.64,6.38,6.38,0,0,0,1.85-5q0-6.78-6.51-6.79h-8.82Z"></path><path class="cls-2" d="M361.07,90.37V45.29H372.2l12.25,25,12.18-25h11.06V90.37H396.42V64.47l-8.89,18.2H381.3l-9-18.2v25.9Z"></path><path class="cls-2" d="M414.83,90.37l17.22-45.08h12.18l17.22,45.08H449.69l-4.06-10.22H430.58l-4,10.22Zm17.29-18.55h12l-6-15.68Z"></path><path class="cls-1" d="M483.15,91.07q-8.4,0-13.58-2.1V83.86a34.86,34.86,0,0,0,6.26,1.72,39.43,39.43,0,0,0,6.83.59q6,0,9-1.64t3-5.92a6.75,6.75,0,0,0-1.22-4.23,9.16,9.16,0,0,0-4-2.66A59.5,59.5,0,0,0,482,69.51q-7.43-1.82-10.43-4.72a10.34,10.34,0,0,1-3-7.81,11,11,0,0,1,4.13-9.06q4.13-3.33,12.6-3.33a44.75,44.75,0,0,1,7.28.56,34.29,34.29,0,0,1,5.18,1.19v5a32,32,0,0,0-5.46-1.4,37.74,37.74,0,0,0-6.09-.49q-5.75,0-8.82,1.68T474.26,57a6,6,0,0,0,1.09,3.75A8.3,8.3,0,0,0,479,63.18a58.78,58.78,0,0,0,7.21,2.13,31.05,31.05,0,0,1,8.61,3.19,10.93,10.93,0,0,1,4.34,4.37,12.68,12.68,0,0,1,1.26,5.74,10.84,10.84,0,0,1-4.34,9.21Q491.77,91.07,483.15,91.07Z"></path><path class="cls-1" d="M517.24,90.37l-10.5-45.08h5.67l8.47,37.1,9.73-32.13v-5h4.69l10.5,37.1,8.61-37.1H560L549.58,90.37h-6.09l-9.8-34.3L523.4,90.37Z"></path><path class="cls-1" d="M561.76,90.37l17.15-45.08h6.72l17.08,45.08h-5.88L592.07,78h-19.6l-4.76,12.39Zm11.69-16.94H591L582.2,50.26Z"></path><path class="cls-1" d="M612.51,90.37V45.29h19q7.56,0,11.13,4.06a15.33,15.33,0,0,1,3.57,10.5q0,6.58-4,10.4t-11,3.81h-13V90.37Zm5.74-20.79h12.11q5,0,7.59-2.62a9.73,9.73,0,0,0,2.56-7.11c0-3.17-.81-5.63-2.41-7.38s-4.08-2.63-7.39-2.63H618.25Z"></path><path class="cls-1" d="M72.53,51.24l-9,8.94L77,73.59l8.94-9a9.48,9.48,0,1,0-13.4-13.4Z"></path><path class="cls-2" d="M60.91,62.85l-8.46,8.47a9.48,9.48,0,1,0,13.4,13.41l8.47-8.47Z"></path><path class="cls-1" d="M111,15.31a68,68,0,0,0-97.2,93.84,3.51,3.51,0,0,0,5.25.32h0a3.49,3.49,0,0,0,.3-4.59,61,61,0,0,1,86.84-84.47l-1.61,1.7a1.1,1.1,0,0,0,.62,1.83L115,25.5a1.09,1.09,0,0,0,1.24-1.31l-2.11-9.68a1.09,1.09,0,0,0-1.86-.52Z"></path><path class="cls-2" d="M117.09,26.71a3.5,3.5,0,0,0-.31,4.58,61,61,0,0,1-84.95,85.86l1.4-1.55a1.1,1.1,0,0,0-.66-1.82l-9.81-1.35a1.09,1.09,0,0,0-1.22,1.34l2.31,9.63a1.09,1.09,0,0,0,1.87.48l1.39-1.53A68,68,0,0,0,122.34,27a3.5,3.5,0,0,0-5.25-.33Z"></path><rect class="cls-1" x="55.4" y="105.21" width="28.39" height="7.47" rx="3.73"></rect></svg>