<svg xmlns="http://www.w3.org/2000/svg" xmlns:xlink="http://www.w3.org/1999/xlink" viewBox="0 0 176.82 47.85"><defs><style>.cls-1{fill:none;}.cls-2{clip-path:url(#clip-path);}.cls-3{fill:#f16622;}.cls-4{fill:#ffcc02;}.cls-5{fill:#ca2026;}.cls-6{fill:#1d9e38;}.cls-7{fill:#2f9967;}.cls-8{fill:#349946;}</style><clipPath id="clip-path" transform="translate(0 0)"><rect class="cls-1" width="176.82" height="47.85"></rect></clipPath></defs><g id="Layer_2" data-name="Layer 2"><g id="header"><g id="Artwork_3" data-name="Artwork 3"><g class="cls-2"><g class="cls-2"><path class="cls-3" d="M10.24,19.14a7.89,7.89,0,0,0-4.95,8.51l0,.17,0,.14a7.91,7.91,0,0,0,13.75,3.77L37,11.4a1.35,1.35,0,0,0-1.51-2.15Z" transform="translate(0 0)"></path><path class="cls-4" d="M38,4.83a1.62,1.62,0,0,0,0-3A23.89,23.89,0,0,0,7.44,13.41a1.83,1.83,0,0,0,2.32,2.51Z" transform="translate(0 0)"></path><path class="cls-5" d="M19.47,43.49a1.29,1.29,0,0,0-.07,2.38A23.92,23.92,0,0,0,50.82,33.55a1.3,1.3,0,0,0-1.67-1.72Z" transform="translate(0 0)"></path><path class="cls-6" d="M37.8,15.75l-19.29,22A1.35,1.35,0,0,0,20,39.86L47.41,29.11a8.25,8.25,0,0,0,5.12-9V20c0-.09,0-.18,0-.27a8.46,8.46,0,0,0-14.68-4" transform="translate(0 0)"></path><path class="cls-7" d="M5.55,32.44a2.79,2.79,0,1,1-3.21-2.3,2.8,2.8,0,0,1,3.21,2.3" transform="translate(0 0)"></path><path class="cls-8" d="M82.22,37.42l-.73-5.66c-.42-3.29-1.86-6-5-6a5.86,5.86,0,0,0-5.09,3V19.46c0-.76-.18-1.34-.88-1.34-.36,0-.76.09-2.77,1s-2.92,1.37-2.92,2c0,1.37,2,.52,2,2.44V37.79c0,2.25-1.77,1.58-1.77,2.8,0,.42.31.85,1,.85s1.49-.09,3-.09,2.37.09,3.08.09,1-.46,1-.85c0-1.22-1.83-.55-1.83-2.8V33.34c0-3,1.53-4.08,2.87-4.08,1.7,0,2.43,1.55,2.71,3.62l.63,4.51a5.75,5.75,0,0,1,.1,1c0,1.47-1.77,1-1.77,2.17,0,.48.34.85,1.13.85s1.43-.09,3.07-.09,2.22.09,3,.09,1.09-.3,1.09-.79c0-1.31-1.67-.49-2-3.2" transform="translate(0 0)"></path><path class="cls-8" d="M124.72,37.79V19.58c0-.88-.22-1.46-1-1.46-.3,0-.7.09-2.71,1s-2.92,1.37-2.92,2c0,1.37,2,.52,2,2.44V35.75c0,1.51-.05,2.64-1.46,2.78C116.1,38.78,115.46,36,115,33L114.76,31c-.46-3.35-2.4-5.3-6.21-5.3a8.49,8.49,0,0,0-5.88,2.13,2.46,2.46,0,0,0-1,1.52.83.83,0,0,0,.79.86,2.74,2.74,0,0,0,1.16-.46,6.1,6.1,0,0,1,3.41-1.16c1.73,0,2.92,1,3.29,3.59l0,.34a11.63,11.63,0,0,0-3.44-.49c-4.11,0-6.4,2.19-6.4,5s2.07,4.69,5.42,4.69a8.08,8.08,0,0,0,5.64-2.19,3.68,3.68,0,0,0,.73,1c1.47,1.6,3.43,1.36,5.26,1.16,2.09-.22,4.32-.35,4.47-.36h.37c1.56,0,2.38.09,3.08.09s1-.46,1-.85c0-1.22-1.82-.55-1.82-2.8M108,39.06h0a2.48,2.48,0,0,1-2.65-2.55c0-1.56,1.22-2.38,3.14-2.38a7.09,7.09,0,0,1,2.25.34l.16,1.18A3,3,0,0,1,108,39.06" transform="translate(0 0)"></path><path class="cls-8" d="M138.57,37.6a1.34,1.34,0,0,0-.85.43,2.84,2.84,0,0,1-1.89.91c-1.07,0-1.83-.61-1.83-2.95V28.41h4.14c.49,0,.73-.24.83-.76a5.94,5.94,0,0,0,.09-.79.67.67,0,0,0-.76-.73H134V21.59c0-.79-.3-1.1-.76-1.1-.61,0-.88.49-1.58,1.62a7.73,7.73,0,0,1-3.93,4.08c-.64.36-1,.67-1,1.27s.45.95,1.12.95h1.62v4.93c0,2.1-.13,4.45-.13,5.09,0,1.82,2,3.31,4.57,3.31a6.33,6.33,0,0,0,4.72-1.85,2.3,2.3,0,0,0,.76-1.46.78.78,0,0,0-.79-.83" transform="translate(0 0)"></path><path class="cls-8" d="M99.08,36.89c-.3,0-.54.15-1,.52a5.93,5.93,0,0,1-3.9,1.52,5.49,5.49,0,0,1-4.9-3.32l9.13-2.8c.55-.18.83-.34.83-1.22,0-3-2.62-6.09-7-6.09a8.2,8.2,0,0,0-8.4,8.34c0,4.94,3.5,8.1,8.19,8.1,3.71,0,6.52-1.89,7.52-3.47a1.55,1.55,0,0,0,.27-.79.78.78,0,0,0-.73-.79m-9.31-7.53a3.12,3.12,0,0,1,4.07-.86l.07,0a2,2,0,0,1-.41,3.69l-4.73,1.49a6.42,6.42,0,0,1,1-4.36" transform="translate(0 0)"></path><path class="cls-8" d="M175.85,26H159.22a.86.86,0,0,0-1,.8c0,1.09,1.37.79,2.56,3.25L166.14,41l0,.05a2.73,2.73,0,0,1-3.52,3.57c-2.14-.75-4.26-2.44-5.18-9.83l-.09-.63a.28.28,0,0,0,0-.09l-.3-2.32c-.42-3.29-1.85-6-5-6a5.83,5.83,0,0,0-5.08,3V19.46c0-.76-.19-1.34-.89-1.34-.36,0-.76.09-2.77,1s-2.92,1.37-2.92,2c0,1.37,2,.52,2,2.44V37.79c0,2.25-1.77,1.58-1.77,2.8,0,.42.31.85,1,.85s1.49-.09,3-.09,2.38.09,3.08.09,1-.46,1-.85c0-1.22-1.82-.55-1.82-2.8V33.34c0-3,1.52-4.08,2.86-4.08,1.7,0,2.43,1.55,2.71,3.62l.35,2.49s0,.11,0,.3a26.37,26.37,0,0,0,2,7c1.58,2.93,4.28,5.14,8.65,4.54l.4-.08c2.2-.36,3.89-2.15,5.11-5l5.14-12.12c1.07-2.46,2.56-2.13,2.56-3.22,0-.49-.42-.8-1-.8m-4.28,5.25A17.08,17.08,0,0,1,168.85,37l-2.6-5.62a2.63,2.63,0,0,1,2.38-3.73,3,3,0,0,1,2.94,3.64" transform="translate(0 0)"></path><path class="cls-8" d="M133,11.94c-.31,0-.55.15-1,.52A5.89,5.89,0,0,1,128.11,14a5.51,5.51,0,0,1-4.91-3.32l9.14-2.8c.55-.18.82-.33.82-1.22,0-3-2.62-6.09-7-6.09a8.2,8.2,0,0,0-8.41,8.35c0,4.93,3.51,8.1,8.2,8.1,3.71,0,6.51-1.89,7.52-3.48a1.52,1.52,0,0,0,.27-.79.79.79,0,0,0-.73-.79m-9.31-7.52a3.12,3.12,0,0,1,4.07-.87l.07,0a2,2,0,0,1-.42,3.69l-4.72,1.49a6.37,6.37,0,0,1,1-4.35" transform="translate(0 0)"></path><path class="cls-8" d="M116.52,12.46l-.76-5.67c-.43-3.28-1.86-6-5-6a5.83,5.83,0,0,0-5.05,3V2.38c0-.85-.21-1.46-.94-1.46a3.24,3.24,0,0,0-1.26.36h0l-.57.25a8.86,8.86,0,0,1-4.89,1.06,12.68,12.68,0,0,1-4.5-1.19A10.1,10.1,0,0,0,89.36.55c-5.42,0-9.28,3.6-9.28,8.44a6,6,0,0,1-1.21,2.34c-1.52,1.92-3,2.89-5.23,2.89H71.11L79.69,2.9a1.51,1.51,0,0,0,.4-.95c0-.48-.4-.88-1.22-.88s-1.46.09-3.16.09H69.5c-.77,0-.89-.67-1.59-.67s-.88.67-1,1.07L66,3.9a4.63,4.63,0,0,0-.48,1.65.77.77,0,0,0,.76.82,1.42,1.42,0,0,0,1.06-.64c1.31-1.55,2.5-2.38,4.33-2.38h2.16L65.23,14.59a1.47,1.47,0,0,0-.39,1c0,.52.39,1,1.22,1,.66,0,1.67-.12,3.16-.12h7.22c.82,0,1,.7,1.7.7s1-.8,1.16-1.16l1-2.62h0a.48.48,0,0,1,.87-.08c1.4,2.29,4,3.77,7.57,3.77,5.3,0,9.29-3.47,9.29-8.4a8.38,8.38,0,0,0-.55-3,11.63,11.63,0,0,0,2.27,0,1.2,1.2,0,0,1,1.35,1.18v6.14c0,2.26-1.79,1.59-1.79,2.8,0,.43.3.86,1,.86s1.53-.09,3.05-.09,2.34.09,3.07.09a.9.9,0,0,0,1-.86c0-1.21-1.8-.54-1.8-2.8V8.38c0-3.05,1.52-4.08,2.83-4.08,1.74,0,2.44,1.55,2.74,3.62l.55,4a10.31,10.31,0,0,1,.15,1.37c0,1.64-1.76,1.22-1.76,2.34,0,.49.36.86,1.15.86s1.4-.1,3-.1,2.22.1,3,.1,1.1-.31,1.1-.8c0-1.3-1.68-.48-2-3.19M90.9,15c-2.59.54-5-3.28-5.7-6.53s.06-5.43,2-5.84c2.56-.54,5,3.28,5.7,6.55s0,5.39-2,5.82" transform="translate(0 0)"></path></g></g></g></g></g></svg>